<?xml version="1.0" encoding="UTF-8"?>
<!DOCTYPE svg PUBLIC "-//W3C//DTD SVG 1.1//EN" "http://www.w3.org/Graphics/SVG/1.1/DTD/svg11.dtd">
<!-- Creator: CorelDRAW 2019 (64 Bit) -->
<svg xmlns="http://www.w3.org/2000/svg" xml:space="preserve" width="46.3566mm" height="38.646mm" version="1.1" style="shape-rendering:geometricPrecision; text-rendering:geometricPrecision; image-rendering:optimizeQuality; fill-rule:evenodd; clip-rule:evenodd"
viewBox="0 0 4635.66 3864.6"
 xmlns:xlink="http://www.w3.org/1999/xlink">
 <defs>
  <style type="text/css">
   <![CDATA[
    .fil0 {fill:#AD3D4D}
   ]]>
  </style>
 </defs>
 <g id="Layer_x0020_1">
  <metadata id="CorelCorpID_0Corel-Layer"/>
  <path class="fil0" d="M206.23 0.01c1448.06,291.21 2848.59,291.21 4201.59,0 100.31,476.06 154.63,1124.19 162.95,1944.38 12.09,360.28 33.26,800.96 63.5,1389.64 21.4,336.2 -201.17,351.05 -708.14,489.72 -151.53,41.43 -263.16,37.66 -419.65,36.49 -573.28,-4.31 -896.31,-242.92 -970.38,-733.95 -141.06,-668.36 -223.78,-1160.99 -248.15,-1477.88 -25.23,329.21 -67.7,619.07 -106.19,873.46 -33.26,219.77 -100.46,701.61 -205.38,898.87 -162.2,304.93 -534.8,479.48 -1013.57,437.7 -211.85,-18.47 -376.14,-72.7 -577.07,-137.67 -302.31,-97.75 -417.7,-173.82 -378.3,-428.77 52.86,-533.58 79.11,-1119.33 78.74,-1757.24 5,-479.14 45.02,-990.71 120.05,-1534.75z"/>
 </g>
</svg>
