<?xml version="1.0" encoding="UTF-8"?>
<!DOCTYPE svg PUBLIC "-//W3C//DTD SVG 1.1//EN" "http://www.w3.org/Graphics/SVG/1.1/DTD/svg11.dtd">
<!-- Creator: CorelDRAW 2019 (64 Bit) -->
<svg xmlns="http://www.w3.org/2000/svg" xml:space="preserve" width="46.4878mm" height="40.1132mm" version="1.1" style="shape-rendering:geometricPrecision; text-rendering:geometricPrecision; image-rendering:optimizeQuality; fill-rule:evenodd; clip-rule:evenodd"
viewBox="0 0 4648.78 4011.32"
 xmlns:xlink="http://www.w3.org/1999/xlink">
 <defs>
  <style type="text/css">
   <![CDATA[
    .fil0 {fill:#AD3D4D}
   ]]>
  </style>
 </defs>
 <g id="Layer_x0020_1">
  <metadata id="CorelCorpID_0Corel-Layer"/>
  <path class="fil0" d="M4403.42 0c-880.12,312.33 -3046.14,317.78 -4172.61,39.26 -69.35,241.47 -117.62,921.16 -144.82,2039.07 -14.71,586.08 -42.93,1005.14 -84.66,1480.94 -40.18,317.81 837.5,489.89 1314.57,444.98 356.8,-33.59 608.76,-269.94 709.16,-554.05 54.19,-153.4 79.49,-379.48 107.64,-543.2 92.62,-538.61 143.56,-920.58 152.8,-1145.88 9.55,225.3 62.22,607.27 158,1145.88 29.11,163.73 55.27,389.8 111.3,543.2 103.82,284.11 364.36,520.46 733.3,554.05 493.31,44.91 1400.86,-127.17 1359.31,-444.98 -43.15,-475.8 -72.33,-894.86 -87.54,-1480.94 -28.12,-1117.91 -84.74,-1836.86 -156.45,-2078.33z"/>
 </g>
</svg>
