<?xml version="1.0" encoding="UTF-8"?>
<!DOCTYPE svg PUBLIC "-//W3C//DTD SVG 1.1//EN" "http://www.w3.org/Graphics/SVG/1.1/DTD/svg11.dtd">
<!-- Creator: CorelDRAW 2019 (64 Bit) -->
<svg xmlns="http://www.w3.org/2000/svg" xml:space="preserve" width="59.8456mm" height="73.957mm" version="1.1" style="shape-rendering:geometricPrecision; text-rendering:geometricPrecision; image-rendering:optimizeQuality; fill-rule:evenodd; clip-rule:evenodd"
viewBox="0 0 5984.56 7395.7"
 xmlns:xlink="http://www.w3.org/1999/xlink">
 <defs>
  <style type="text/css">
   <![CDATA[
    .fil0 {fill:#222E44}
   ]]>
  </style>
 </defs>
 <g id="Layer_x0020_1">
  <metadata id="CorelCorpID_0Corel-Layer"/>
  <path class="fil0" d="M4933.67 5523.42c184.95,1010.93 275.22,1560.8 270.81,1649.62 -1384.8,296.87 -2816.79,296.87 -4201.59,0 226.29,-1414.48 340.95,-2504.55 343.97,-3270.23 0.94,-193.26 -77.55,-640.41 -219.6,-1240.9 -15.88,255.77 -15.89,433.92 -15.89,433.92 -361.51,11.1 -723.29,11.1 -1084.8,0 -17.18,-2.97 -24.24,-20.17 -21.17,-51.6 -21.19,-287.33 22.46,-569.99 85.98,-850.63 26.81,-122.63 40.47,-344 40.96,-664.11 1.95,-565.12 208.32,-954.06 619.12,-1166.82 479.75,-225.19 1172.97,-345.14 2079.65,-359.84 899.17,-21.17 1645.29,76.73 2238.34,293.69 421.83,164.05 667.01,453.33 735.55,867.83 55.35,340.8 49.87,678.42 111.12,1037.17 72.73,608.77 102.55,870.76 13.21,859.92 -630.58,-2.63 -945.87,-3.94 -945.87,-3.94 -81.23,-6.06 -42.67,-161.51 -65.53,-441.85 -219.09,1006.91 -203.76,1902.68 15.74,2907.77z"/>
 </g>
</svg>
