<?xml version="1.0" encoding="UTF-8"?>
<!DOCTYPE svg PUBLIC "-//W3C//DTD SVG 1.1//EN" "http://www.w3.org/Graphics/SVG/1.1/DTD/svg11.dtd">
<!-- Creator: CorelDRAW 2019 (64 Bit) -->
<svg xmlns="http://www.w3.org/2000/svg" xml:space="preserve" width="59.5502mm" height="73.212mm" version="1.1" style="shape-rendering:geometricPrecision; text-rendering:geometricPrecision; image-rendering:optimizeQuality; fill-rule:evenodd; clip-rule:evenodd"
viewBox="0 0 5955.02 7321.2"
 xmlns:xlink="http://www.w3.org/1999/xlink">
 <defs>
  <style type="text/css">
   <![CDATA[
    .fil2 {fill:none}
    .fil0 {fill:#222E44}
    .fil1 {fill:#AD3D4D}
   ]]>
  </style>
   <clipPath id="id0">
    <path d="M5047.11 291.43c422.14,163.95 670.85,442.65 746.13,836.09 20.01,138.93 31.47,329.43 34.38,571.5 3.21,63.1 8.59,124.12 16.14,183.02 13.16,102.78 37.62,201.37 51.62,304.02 25.28,185.11 45.03,444.35 59.25,777.67 4.57,62.31 -29.61,91.95 -140.25,93.91 -565.33,0.88 -834.77,1.32 -834.77,1.32 -64.28,-2.09 -82.44,-56.67 -88.65,-113.78 -8.61,-85.66 -8.18,-169.54 -11.93,-275.48 -154.81,805.28 -190.08,1441.61 -105.81,1908.99 158.87,983.79 287.72,1876.32 404.79,2500.32 -935.47,341.94 -3234.06,290.74 -4172.61,39.26 99.69,-531.38 170.66,-1256.96 260.23,-2070.46 56.66,-514.6 120.01,-842.04 37,-1379.82 -49.18,-318.57 -132.15,-657.86 -226.64,-997.54 -3.75,105.94 -3.32,189.82 -11.93,275.48 -6.21,57.11 -24.37,111.69 -88.65,113.78 0,0 -269.44,-0.44 -834.77,-1.32 -110.64,-1.96 -144.82,-31.6 -140.25,-93.91 14.22,-333.32 33.97,-592.56 59.25,-777.67 14,-102.65 38.46,-201.24 51.62,-304.02 7.55,-58.9 12.93,-119.92 16.14,-183.02 2.91,-242.07 14.37,-432.57 34.38,-571.5 66.11,-345.54 262.95,-615.84 595.84,-787.6 278.69,-143.8 542.69,-184.02 854.26,-237.37 1203.54,-147.02 2275.8,-178.93 3435.23,188.13z"/>
   </clipPath>
 </defs>
 <g id="Layer_x0020_1">
  <metadata id="CorelCorpID_0Corel-Layer"/>
  <path class="fil0" d="M5047.11 291.43c422.14,163.95 670.85,442.65 746.13,836.09 20.01,138.93 31.47,329.43 34.38,571.5 3.21,63.1 8.59,124.12 16.14,183.02 13.16,102.78 37.62,201.37 51.62,304.02 25.28,185.11 45.03,444.35 59.25,777.67 4.57,62.31 -29.61,91.95 -140.25,93.91 -565.33,0.88 -834.77,1.32 -834.77,1.32 -64.28,-2.09 -82.44,-56.67 -88.65,-113.78 -8.61,-85.66 -8.18,-169.54 -11.93,-275.48 -154.81,805.28 -190.08,1441.61 -105.81,1908.99 158.87,983.79 287.72,1876.32 404.79,2500.32 -935.47,341.94 -3234.06,290.74 -4172.61,39.26 99.69,-531.38 170.66,-1256.96 260.23,-2070.46 56.66,-514.6 120.01,-842.04 37,-1379.82 -49.18,-318.57 -132.15,-657.86 -226.64,-997.54 -3.75,105.94 -3.32,189.82 -11.93,275.48 -6.21,57.11 -24.37,111.69 -88.65,113.78 0,0 -269.44,-0.44 -834.77,-1.32 -110.64,-1.96 -144.82,-31.6 -140.25,-93.91 14.22,-333.32 33.97,-592.56 59.25,-777.67 14,-102.65 38.46,-201.24 51.62,-304.02 7.55,-58.9 12.93,-119.92 16.14,-183.02 2.91,-242.07 14.37,-432.57 34.38,-571.5 66.11,-345.54 262.95,-615.84 595.84,-787.6 278.69,-143.8 542.69,-184.02 854.26,-237.37 1203.54,-147.02 2275.8,-178.93 3435.23,188.13z"/>
  <g style="clip-path:url(#id0)">
   <g id="_1813119918224">
    <rect class="fil1" x="2869.05" y="-806.34" width="216.92" height="9183.7"/>
   </g>
  </g>
  <path class="fil2" d="M5047.11 291.43c422.14,163.95 670.85,442.65 746.13,836.09 20.01,138.93 31.47,329.43 34.38,571.5 3.21,63.1 8.59,124.12 16.14,183.02 13.16,102.78 37.62,201.37 51.62,304.02 25.28,185.11 45.03,444.35 59.25,777.67 4.57,62.31 -29.61,91.95 -140.25,93.91 -565.33,0.88 -834.77,1.32 -834.77,1.32 -64.28,-2.09 -82.44,-56.67 -88.65,-113.78 -8.61,-85.66 -8.18,-169.54 -11.93,-275.48 -154.81,805.28 -190.08,1441.61 -105.81,1908.99 158.87,983.79 287.72,1876.32 404.79,2500.32 -935.47,341.94 -3234.06,290.74 -4172.61,39.26 99.69,-531.38 170.66,-1256.96 260.23,-2070.46 56.66,-514.6 120.01,-842.04 37,-1379.82 -49.18,-318.57 -132.15,-657.86 -226.64,-997.54 -3.75,105.94 -3.32,189.82 -11.93,275.48 -6.21,57.11 -24.37,111.69 -88.65,113.78 0,0 -269.44,-0.44 -834.77,-1.32 -110.64,-1.96 -144.82,-31.6 -140.25,-93.91 14.22,-333.32 33.97,-592.56 59.25,-777.67 14,-102.65 38.46,-201.24 51.62,-304.02 7.55,-58.9 12.93,-119.92 16.14,-183.02 2.91,-242.07 14.37,-432.57 34.38,-571.5 66.11,-345.54 262.95,-615.84 595.84,-787.6 278.69,-143.8 542.69,-184.02 854.26,-237.37 1203.54,-147.02 2275.8,-178.93 3435.23,188.13z"/>
 </g>
</svg>
