<?xml version="1.0" encoding="UTF-8"?>
<!DOCTYPE svg PUBLIC "-//W3C//DTD SVG 1.1//EN" "http://www.w3.org/Graphics/SVG/1.1/DTD/svg11.dtd">
<!-- Creator: CorelDRAW 2019 (64 Bit) -->
<svg xmlns="http://www.w3.org/2000/svg" xml:space="preserve" width="55.769mm" height="47.7528mm" version="1.1" style="shape-rendering:geometricPrecision; text-rendering:geometricPrecision; image-rendering:optimizeQuality; fill-rule:evenodd; clip-rule:evenodd"
viewBox="0 0 5576.9 4775.28"
 xmlns:xlink="http://www.w3.org/1999/xlink">
 <defs>
  <style type="text/css">
   <![CDATA[
    .fil0 {fill:#222E44}
   ]]>
  </style>
 </defs>
 <g id="Layer_x0020_1">
  <metadata id="CorelCorpID_0Corel-Layer"/>
  <g id="_1894715162704">
   <path class="fil0" d="M175.26 732.68c92.04,-233.7 134.58,-399.84 155.83,-494.38 13.56,-60.28 6.82,-111.51 17.07,-154.47 15.69,-65.63 73.69,-87.34 131.76,-83.37 369.72,30.71 671.68,85.76 905.87,165.1 74.52,25.25 171.04,56.12 242.5,84.75 70.91,28.41 91.61,62.42 62.1,102.04 -151.72,254.89 -227.58,382.33 -227.58,382.33 -23.69,35.29 -29.01,112.9 -15.95,232.84 55.77,419.16 63.61,758.68 23.56,1018.58 -35.5,230.33 -134.8,420.56 -217.27,636.47 -208.67,546.39 -323.41,995.74 -344.17,1348.06 -7.52,127.53 2.23,183.08 20.57,303.97 24.3,160.07 24.31,318.89 0.01,476.44 -40.75,-119.63 -88.37,-174.9 -142.82,-165.82 -32.17,5.35 -54.82,32.73 -95.6,43.32 -68.57,17.85 -137.28,6.22 -206.11,-34.92 -41.27,-24.87 -116.18,-10.27 -203.53,67.59 -66.9,59.64 -100.4,99.54 -148.8,109.17 -98.08,19.52 -123.74,-19.11 -77.28,-117.29 18.83,-39.88 15.06,-48.72 20.63,-91.98 15.79,-122.48 49.23,-249.54 107.78,-377.88 37.89,-83.05 33.16,-212.46 25.5,-358.24 -24.83,-471.97 -63.27,-803.01 -108.15,-1007.38 -156.25,-805.93 -131.56,-1500.91 74.08,-2084.93z"/>
   <path class="fil0" d="M5401.63 732.68c-92.04,-233.7 -134.58,-399.84 -155.83,-494.38 -13.56,-60.28 -6.82,-111.51 -17.07,-154.47 -15.69,-65.63 -73.69,-87.34 -131.76,-83.37 -369.72,30.71 -671.68,85.76 -905.87,165.1 -74.52,25.25 -171.04,56.12 -242.5,84.75 -70.91,28.41 -91.61,62.42 -62.1,102.04 151.72,254.89 227.58,382.33 227.58,382.33 23.69,35.29 29.01,112.9 15.95,232.84 -55.77,419.16 -63.61,758.68 -23.56,1018.58 35.5,230.33 134.8,420.56 217.27,636.47 208.67,546.39 323.41,995.74 344.17,1348.06 7.52,127.53 -2.23,183.08 -20.57,303.97 -24.3,160.07 -24.31,318.89 -0.01,476.44 40.75,-119.63 88.37,-174.9 142.82,-165.82 32.17,5.35 54.82,32.73 95.6,43.32 68.57,17.85 137.28,6.22 206.11,-34.92 41.27,-24.87 116.18,-10.27 203.53,67.59 66.9,59.64 100.4,99.54 148.8,109.17 98.08,19.52 123.74,-19.11 77.28,-117.29 -18.83,-39.88 -15.06,-48.72 -20.63,-91.98 -15.79,-122.48 -49.23,-249.54 -107.78,-377.88 -37.89,-83.05 -33.16,-212.46 -25.5,-358.24 24.83,-471.97 63.27,-803.01 108.15,-1007.38 156.25,-805.93 131.56,-1500.91 -74.08,-2084.93z"/>
  </g>
 </g>
</svg>
