<?xml version="1.0" encoding="UTF-8"?>
<!DOCTYPE svg PUBLIC "-//W3C//DTD SVG 1.1//EN" "http://www.w3.org/Graphics/SVG/1.1/DTD/svg11.dtd">
<!-- Creator: CorelDRAW 2019 (64 Bit) -->
<svg xmlns="http://www.w3.org/2000/svg" xml:space="preserve" width="53.0088mm" height="46.4014mm" version="1.1" style="shape-rendering:geometricPrecision; text-rendering:geometricPrecision; image-rendering:optimizeQuality; fill-rule:evenodd; clip-rule:evenodd"
viewBox="0 0 5300.88 4640.14"
 xmlns:xlink="http://www.w3.org/1999/xlink">
 <defs>
  <style type="text/css">
   <![CDATA[
    .fil0 {fill:#222E44}
   ]]>
  </style>
 </defs>
 <g id="Layer_x0020_1">
  <metadata id="CorelCorpID_0Corel-Layer"/>
  <g id="_1894531716672">
   <path class="fil0" d="M1443.04 214.4c-460.87,-258.2 -1157.24,-289.57 -1160.74,-59.27 -6.45,120.84 -24.97,241.67 -55.56,362.48 -343.72,921.25 -228.05,1822.39 -98.07,2761.47 30.42,219.9 68.44,422.15 44.16,645.72 -11.44,105.42 -34.94,200.88 -70.45,286.36 -48,92.48 -64.46,204.3 -49.4,335.42 10.12,88.69 24.24,-26.5 89.76,-28.11 73.92,-1.82 38.69,78.08 160.09,75.67 133.14,-2.64 176.9,-82.6 249.94,-89.79 35.03,-3.44 77.87,9.97 120.49,41.52 48.68,36.03 65.88,78.11 132.19,92.45 39.86,8.62 71.31,-13.53 79.18,-64.93 16.44,-107.41 -21.96,-282.08 -34.04,-398.42 -44.88,-431.92 82.89,-1068.17 270.32,-1524.07 80.41,-195.57 156.14,-327.6 208.47,-543.06 56.73,-233.59 74.8,-477.27 54.26,-731.02 -10.34,-127.64 -50.29,-274.56 -43.71,-434.03 3.6,-87.71 27.96,-98.96 73.13,-172.22 62.48,-101.32 111.53,-187.39 139.53,-259.72 52.54,-135.73 54.88,-204.31 -109.55,-296.45z"/>
   <path class="fil0" d="M3857.83 214.4c460.87,-258.2 1157.24,-289.57 1160.74,-59.27 6.45,120.84 24.97,241.67 55.56,362.48 343.72,921.25 228.05,1822.39 98.07,2761.47 -30.42,219.9 -68.44,422.15 -44.16,645.72 11.44,105.42 34.94,200.88 70.45,286.36 48,92.48 64.46,204.3 49.4,335.42 -10.12,88.69 -24.24,-26.5 -89.76,-28.11 -73.92,-1.82 -38.69,78.08 -160.09,75.67 -133.14,-2.64 -176.9,-82.6 -249.94,-89.79 -35.03,-3.44 -77.87,9.97 -120.49,41.52 -48.68,36.03 -65.88,78.11 -132.19,92.45 -39.86,8.62 -71.31,-13.53 -79.18,-64.93 -16.44,-107.41 21.96,-282.08 34.04,-398.42 44.88,-431.92 -82.89,-1068.17 -270.32,-1524.07 -80.41,-195.57 -156.14,-327.6 -208.47,-543.06 -56.73,-233.59 -74.8,-477.27 -54.26,-731.02 10.34,-127.64 50.29,-274.56 43.71,-434.03 -3.6,-87.71 -27.96,-98.96 -73.13,-172.22 -62.48,-101.32 -111.53,-187.39 -139.53,-259.72 -52.54,-135.73 -54.88,-204.31 109.55,-296.45z"/>
  </g>
 </g>
</svg>
